<?xml version="1.0" encoding="utf-8"?>
<!-- Generator: Adobe Illustrator 22.0.0, SVG Export Plug-In . SVG Version: 6.00 Build 0)  -->
<svg version="1.1" xmlns="http://www.w3.org/2000/svg" xmlns:xlink="http://www.w3.org/1999/xlink" x="0px" y="0px"
	 viewBox="0 0 32 32" style="enable-background:new 0 0 32 32;" xml:space="preserve">
<style type="text/css">
	.st0{display:none;}
	.st1{display:inline;fill:#FFF3E2;}
	.st2{display:inline;fill:none;stroke:#762940;stroke-width:1.5;stroke-linecap:round;stroke-miterlimit:10;}
	.st3{fill:#762940;}
	.st4{fill:#AD6846;}
	.st5{fill:none;stroke:#762940;stroke-width:1.5;stroke-linecap:round;stroke-miterlimit:10;}
	.st6{fill:none;stroke:#762940;stroke-width:0.75;stroke-miterlimit:10;}
	.st7{fill:none;stroke:#762940;stroke-width:0.75;stroke-linecap:round;stroke-miterlimit:10;}
	.st8{fill:#B06943;}
	.st9{fill:none;stroke:#FFF3E0;stroke-linecap:round;stroke-miterlimit:10;}
	.st10{fill:none;stroke:#B06943;stroke-width:0.5;stroke-linecap:round;stroke-miterlimit:10;}
	.st11{fill:none;stroke:#B06943;stroke-width:0.5;stroke-miterlimit:10;}
</style>
<g id="Layer_1" class="st0">
	<circle class="st1" cx="16" cy="16" r="15.3"/>
</g>
<g id="Layer_2" class="st0">
</g>
<g id="Layer_4">
</g>
<g id="Layer_5">
	<g>
		<g>
			<path class="st8" d="M7.1,16.6c-0.2,0-0.4,0.3-0.4,0.5c0,0.6-0.4,0.8-0.9,0.9c-0.5,0.1-0.9,0-1.2-0.4c0,0,0,0,0-0.1
				c-0.3-0.3-0.8-0.7-0.8-1c0-0.4,0.7-0.2,1-0.5c0.1-0.1,0.3-0.1,0.3-0.4c-0.5,0-1.1,0.3-1.5-0.2c-0.2-0.2-0.5-0.4-0.3-0.7
				c0.1-0.2,0.3-0.5,0.7-0.5c0.3,0,0.6,0.2,0.9,0c0.3-0.2,0.6,0.2,0.8-0.2c0.2-0.4,0-1-0.3-1.1c-0.6-0.3-0.2-1.2-0.9-1.4
				c-0.2-0.1,0-0.4,0.2-0.5c0.3-0.2,0.3-0.7,0.9-0.5C6,11,6.4,11,6.8,10.7c0.7-0.8,1.4-1.6,2-2.4c0.2-0.3,0.5-0.6,0.4-1
				c0-0.4,0.4-0.4,0.6-0.7C9.6,6.4,9.4,6.2,9.1,6c-0.9-0.6-1-1.3-0.3-2.2c0.1-0.2,0.1-0.3,0-0.4C8.6,3.3,8.4,3.1,8.2,2.9
				C8.1,2.8,7.6,2.9,7.7,2.5C7.8,2.2,8.1,2,8.4,1.9c1.1-0.5,1.9-0.1,2.7,0.7C11.6,3.1,12,3.4,12.8,3c0.2-0.1,0.5-0.1,0.7-0.1
				c0.7,0,0.9,0.5,0.6,1.1c-0.2,0.3-0.4,0.6-0.7,0.8C13,4.9,13,5.2,13.3,5.5c0.2,0.2,0.4,0.5,0.2,0.7c-0.2,0.5-0.7-0.1-0.7,0.5
				c0,0.3,0.3,0.7,0.5,0.9c0.1,0.1,1.6,1.1,1.6,1.1c-0.2,0.2-0.3,0.3-0.4,0.5c-0.3,0.5-0.2,0.9,0.3,1.2c0.5,0.3,1,0.7,1.6,0.8
				c0.4,0.1,0.7,0.4,1.1,0.1c0.2-0.1,0.4,0,0.6,0.1c0.7,0.7,1.6,0.7,2.5,0.8c0.4,0.1,0.8-0.1,0.6-0.7c-0.1-0.2,0-0.3,0-0.5
				c0-0.2,0.1-0.6,0.4-0.5c0.3,0,0.2,0.3,0.2,0.5c0,0.6,0.4,0.7,0.9,0.7c0.4,0,0.9-0.1,1.3-0.2c0.2,0,0.9-0.1,0.6-0.3
				c-0.3-0.3-0.1-0.3-0.2-0.6c0.4-0.7,1.1-1.1,1.8-1.6c0.3-0.2,0.4-0.4,0.8-0.3c0.1,0,0.3,0,0.3,0c0.7-0.7,0.8,0,0.9,0.4
				c0,0.1,0.1,0.2,0.2,0.2c0.2,0.1,0.6,0,0.5,0.3c-0.1,0.3-0.2,0.6-0.6,0.8c-0.6,0.3-1,0.6-1.1,1.4c0,0.5-0.2,1.1-0.4,1.6
				c0,0.1-0.1,0.3-0.2,0.3c-0.9,0.4-0.7,1.2-0.7,1.9c0,0.2,0,0.4-0.2,0.4c-0.2,0.1-0.3-0.2-0.3-0.3c-0.2-0.4-0.1-0.9-0.4-1.3
				c-0.1,0-0.1,0.1-0.2,0.1c-0.2,0.1,0,0.7-0.4,0.4c-0.3-0.2-0.4-0.5-0.2-0.8c0.1-0.1,0.3-0.2,0.4-0.3c0.2-0.2,0.4-0.4,0.3-0.7
				c-0.1-0.4-0.4-0.1-0.6-0.1c-0.3,0-0.6,0-1,0c-0.2,0-0.5-0.1-0.5-0.4c0-0.3-0.2-0.4-0.4-0.5c-0.3-0.1-0.8-0.4-1,0
				c-0.2,0.4,0.3,0.5,0.6,0.8c-1.2,0.5-0.1,1.2,0,1.7c0.1,0.5,0.3,1,0.3,1.4c0,0.7-0.8,0.2-1.1,0.6c-0.3,0.3-0.7,0.4-0.6,0.9
				c0,0.5-0.4,0.8-0.8,0.9c-0.4,0.1-0.7,0.4-1,0.7c-0.5,0.7-1.4,1.2-1.9,1.9c-0.6,0.8-1.4,1-2.2,1.5c-0.3,0.2-0.3,0.5-0.3,0.9
				c0.1,0.9,0.5,1.9-0.3,2.7c0,0,0,0.1,0,0.1c0.4,1-0.3,1.7-0.9,2.3c-0.4,0.4-0.8,1-1.3,1.2c-0.6,0.3-1-0.3-1.3-0.8
				c-0.2-0.3-0.2-0.6-0.3-0.9c-0.2-0.7-0.4-1.5-1-2.1c0,0-0.1-0.1-0.1-0.1c-0.3-1.7-1.5-3.1-1.7-4.9c-0.1-0.6-0.3-1.2-0.3-1.8
				c-0.1-0.7,0.1-1.4,0-2.2c0-0.3,0.2-0.5,0.1-0.8C7.2,16.6,7.2,16.6,7.1,16.6z"/>
		</g>
		<g>
			<path class="st9" d="M12.8,11.4l0.9,1.2c0.1,0.1,0.1,0.2,0,0.3l-1.2,0.9"/>
			<path class="st9" d="M15.2,13.3c0.2,0.1,0.2,0.1,0.4,0.3c1.4,1.4,1.4,3.6,0.1,5s-3.6,1.4-5,0.1s-1.4-3.6-0.1-5
				c0.8-0.8,1.9-1.2,2.9-1"/>
		</g>
	</g>
</g>
</svg>
